0
SECTION
2
HEADER
9
$INSUNITS
70
4
9
$ACADVER
1
AC1014
9
$HANDSEED
5
FFFF
0
ENDSEC
0
SECTION
2
TABLES
0
TABLE
2
VPORT
5
8
100
AcDbSymbolTable
0
ENDTAB
0
TABLE
2
LTYPE
5
5
100
AcDbSymbolTable
0
LTYPE
5
14
100
AcDbSymbolTableRecord
100
AcDbLinetypeTableRecord
2
BYBLOCK
70
0
0
LTYPE
5
15
100
AcDbSymbolTableRecord
100
AcDbLinetypeTableRecord
2
BYLAYER
70
0
0
ENDTAB
0
TABLE
2
LAYER
5
2
100
AcDbSymbolTable
70
2
0
LAYER
5
50
100
AcDbSymbolTableRecord
100
AcDbLayerTableRecord
2
0
70
0
6
CONTINUOUS
0
ENDTAB
0
TABLE
2
STYLE
5
3
100
AcDbSymbolTable
70
1
0
STYLE
5
11
100
AcDbSymbolTableRecord
100
AcDbTextStyleTableRecord
2
STANDARD
70
0
0
ENDTAB
0
TABLE
2
VIEW
5
6
100
AcDbSymbolTable
70
0
0
ENDTAB
0
TABLE
2
UCS
5
7
100
AcDbSymbolTable
70
0
0
ENDTAB
0
TABLE
2
APPID
5
9
100
AcDbSymbolTable
70
2
0
APPID
5
12
100
AcDbSymbolTableRecord
100
AcDbRegAppTableRecord
2
ACAD
70
0
0
ENDTAB
0
TABLE
2
DIMSTYLE
5
A
100
AcDbSymbolTable
70
1
0
ENDTAB
0
TABLE
2
BLOCK_RECORD
5
1
100
AcDbSymbolTable
70
1
0
BLOCK_RECORD
5
1F
100
AcDbSymbolTableRecord
100
AcDbBlockTableRecord
2
*MODEL_SPACE
0
BLOCK_RECORD
5
1B
100
AcDbSymbolTableRecord
100
AcDbBlockTableRecord
2
*PAPER_SPACE
0
ENDTAB
0
ENDSEC
0
SECTION
2
BLOCKS
0
BLOCK
5
20
100
AcDbEntity
100
AcDbBlockBegin
2
*MODEL_SPACE
0
ENDBLK
5
21
100
AcDbEntity
100
AcDbBlockEnd
0
BLOCK
5
1C
100
AcDbEntity
100
AcDbBlockBegin
2
*PAPER_SPACE
0
ENDBLK
5
1D
100
AcDbEntity
100
AcDbBlockEnd
0
ENDSEC
0
SECTION
2
ENTITIES
0
LINE
5
100
100
AcDbEntity
8
0
100
AcDbLine
10
0
20
144.00894171149642
30
0
11
0
21
-454.3111857074876
31
0
0
LINE
5
101
100
AcDbEntity
8
0
100
AcDbLine
10
20.478023000000011
20
2.0872192862952943e-13
30
0
11
20.478023000000007
21
-53.999999999999986
31
0
0
ARC
5
102
100
AcDbEntity
8
0
100
AcDbCircle
10
4.4408920985006262e-15
20
-53.999999999999986
30
0
40
20.478023000000007
210
0
220
0
230
1
100
AcDbArc
50
-90
51
0
0
LINE
5
103
100
AcDbEntity
8
0
100
AcDbLine
10
70.000000000002103
20
0
30
0
11
70
21
-188.88999999999996
31
0
0
LINE
5
104
100
AcDbEntity
8
0
100
AcDbLine
10
70
20
-188.88999999999996
30
0
11
36.537203097982875
21
-246.8492643976486
31
0
0
ARC
5
105
100
AcDbEntity
8
0
100
AcDbCircle
10
76.058206489909139
20
-269.66672634462134
30
0
40
45.634923893945476
210
0
220
0
230
1
100
AcDbArc
50
150.00000000000003
51
180
0
ARC
5
106
100
AcDbEntity
8
0
100
AcDbCircle
10
42.592595634349109
20
-269.66672634462134
30
0
40
12.169313038385461
210
0
220
0
230
1
100
AcDbArc
50
180
51
200.00000000000006
0
SPLINE
5
107
100
AcDbEntity
8
0
100
AcDbSpline
70
12
71
2
41
1
41
1
41
1
72
6
73
3
74
0
42
0.000000001
43
0.0000000001
44
0.0000000001
40
0
40
0
40
0
40
17.669170687813569
40
17.669170687813569
40
17.669170687813569
10
31.157181972144556
20
-273.82887653418487
30
0
10
48.704980329327576
20
-322.04105628168753
30
0
10
66.242462558869605
20
-446.82672634462136
30
0
0
LINE
5
108
100
AcDbEntity
8
0
100
AcDbLine
10
-113.52737350945188
20
2.0854640187593431e-14
30
0
11
113.52737350945188
21
-2.0854640187593441e-14
31
0
0
LINE
5
109
100
AcDbEntity
8
0
100
AcDbLine
10
16.478023000000015
20
10.00000000000002
30
0
11
16.478023000000011
21
-53.999999999999986
31
0
0
LINE
5
110
100
AcDbEntity
8
0
100
AcDbLine
10
16.478023000000011
20
-53.999999999999986
30
0
11
0
21
-63.513591014762845
31
0
0
LINE
5
111
100
AcDbEntity
8
0
100
AcDbLine
10
110.0000000000021
20
-2.6942229581242282e-14
30
0
11
70.000000000002103
21
0
31
0
0
LINE
5
112
100
AcDbEntity
8
0
100
AcDbLine
10
110.0000000000021
20
-2.6942229581242282e-14
30
0
11
110.0000000000021
21
-8.0000000000002363
31
0
0
LINE
5
113
100
AcDbEntity
8
0
100
AcDbLine
10
31.157181972144556
20
-273.82887653418487
30
0
11
36.648426165069509
21
-288.91594595895714
31
0
0
LINE
5
114
100
AcDbEntity
8
0
100
AcDbLine
10
66.242462558869605
20
-446.82672634462136
30
0
11
61.723302446708608
21
-414.67123131194433
31
0
0
LINE
5
115
100
AcDbEntity
8
0
100
AcDbLine
10
75.000000000000725
20
-5.5562358031939713e-14
30
0
11
74.999999999998607
21
-190.22974596215616
31
0
0
LINE
5
116
100
AcDbEntity
8
0
100
AcDbLine
10
74.999999999998607
20
-190.22974596215616
30
0
11
40.867330116904995
21
-249.34926439764871
31
0
0
ARC
5
117
100
AcDbEntity
8
0
100
AcDbCircle
10
76.058206489909139
20
-269.66672634462134
30
0
40
40.634923893945469
210
0
220
0
230
1
100
AcDbArc
50
150.00000000000023
51
180
0
ARC
5
118
100
AcDbEntity
8
0
100
AcDbCircle
10
42.592595634349109
20
-269.66672634462134
30
0
40
7.1693130383854653
210
0
220
0
230
1
100
AcDbArc
50
180
51
200.00000000000006
0
SPLINE
5
119
100
AcDbEntity
8
0
100
AcDbSpline
70
0
71
3
72
11
73
7
74
0
42
0.000000001
43
0.0000000001
44
0.0000000001
40
0
40
0
40
0
40
0
40
9.4462107588351731
40
9.4462107588351731
40
9.4462107588351731
40
17.669170687813569
40
17.669170687813569
40
17.669170687813569
40
17.669170687813569
10
35.85564507607409
20
-272.11877581755652
30
0
10
42.265479276235325
20
-289.72965054494728
30
0
10
48.54254247616494
20
-314.38304780869629
30
0
10
54.822803596858016
20
-346.29921443140677
30
0
10
60.28979315038648
20
-374.08235054020855
30
0
10
65.743548744040595
20
-407.35028742086956
30
0
10
71.193802902577445
20
-446.13086083982103
30
0
0
LINE
5
120
100
AcDbEntity
8
0
100
AcDbLine
10
71.19380290257746
20
-446.13086083982103
30
0
11
71.291600421462704
21
-446.82672634462136
31
0
0
LINE
5
121
100
AcDbEntity
8
0
100
AcDbLine
10
71.291600421462704
20
-446.82672634462136
30
0
11
66.242462558869605
21
-446.82672634462136
31
0
0
LINE
5
122
100
AcDbEntity
8
0
100
AcDbLine
10
110.0000000000021
20
-8.0000000000002363
30
0
11
70.000000000002004
21
-7.9999999999998073
31
0
0
LINE
5
123
100
AcDbEntity
8
0
100
AcDbLine
10
13.468306145267501
20
-51.999999999999986
30
0
11
34.542263153481798
21
-51.999999999999986
31
0
0
LINE
5
124
100
AcDbEntity
8
0
100
AcDbLine
10
15.517184574999551
20
-51.999999999999986
30
0
11
15.517184574999551
21
-52.749999999999986
31
0
0
LINE
5
125
100
AcDbEntity
8
0
100
AcDbLine
10
15.517184574999551
20
-52.749999999999986
30
0
11
24.338520883381779
21
-52.749999999999986
31
0
0
LINE
5
126
100
AcDbEntity
8
0
100
AcDbLine
10
24.338520883381779
20
-52.749999999999986
30
0
11
24.338520883381779
21
-51.999999999999986
31
0
0
LINE
5
127
100
AcDbEntity
8
0
100
AcDbLine
10
11.357506350112237
20
-49.999999999999986
30
0
11
32.431463358326525
21
-49.999999999999986
31
0
0
LINE
5
128
100
AcDbEntity
8
0
100
AcDbLine
10
15.326528806999677
20
-49.999999999999986
30
0
11
15.326528806999677
21
-50.749999999999986
31
0
0
LINE
5
129
100
AcDbEntity
8
0
100
AcDbLine
10
24.147865115381908
20
-50.749999999999986
30
0
11
24.147865115381908
21
-49.999999999999986
31
0
0
LINE
5
130
100
AcDbEntity
8
0
100
AcDbLine
10
15.326528806999677
20
-50.749999999999986
30
0
11
24.147865115381908
21
-50.749999999999986
31
0
0
LINE
5
131
100
AcDbEntity
8
0
100
AcDbLine
10
109.99999999999581
20
12.000000000000021
30
0
11
110.0000000000021
21
-2.6942229581242282e-14
31
0
0
LINE
5
132
100
AcDbEntity
8
0
100
AcDbLine
10
110.0000000000021
20
-2.6942229581242282e-14
30
0
11
27.803023000000017
21
-1.1375993271671178e-14
31
0
0
ARC
5
133
100
AcDbEntity
8
0
100
AcDbCircle
10
27.803023000000017
20
-3.0000000000000115
30
0
40
3.0000000000000004
210
0
220
-0
230
1
100
AcDbArc
50
90
51
180
0
LINE
5
134
100
AcDbEntity
8
0
100
AcDbLine
10
24.803023000000014
20
-3.0000000000000115
30
0
11
24.803023000000014
21
-4.9999999999999805
31
0
0
LINE
5
135
100
AcDbEntity
8
0
100
AcDbLine
10
24.803023000000014
20
-4.9999999999999805
30
0
11
21.80302300000001
21
-4.9999999999999787
31
0
0
LINE
5
136
100
AcDbEntity
8
0
100
AcDbLine
10
21.80302300000001
20
-4.9999999999999787
30
0
11
21.80302300000001
21
-5.340200465737227e-15
31
0
0
ARC
5
137
100
AcDbEntity
8
0
100
AcDbCircle
10
30.80302300000001
20
-5.340200465737227e-15
30
0
40
9.0000000000000071
210
0
220
-0
230
1
100
AcDbArc
50
87.999999999999972
51
180
0
LINE
5
138
100
AcDbEntity
8
0
100
AcDbLine
10
109.99999999999581
20
12.000000000000021
30
0
11
70
21
11.999999999999993
31
0
0
LINE
5
139
100
AcDbEntity
8
0
100
AcDbLine
10
70
20
11.999999999999993
30
0
11
70
21
7.636697300099053
31
0
0
LINE
5
140
100
AcDbEntity
8
0
100
AcDbLine
10
70
20
7.636697300099053
30
0
11
31.117118470322524
21
8.994517443171862
31
0
0
ARC
5
141
100
AcDbEntity
8
0
100
AcDbCircle
10
32.478023000000015
20
2.0872192862952943e-13
30
0
40
12.000000000000002
210
-0
220
0
230
1
100
AcDbArc
50
90
51
180
0
LINE
5
142
100
AcDbEntity
8
0
100
AcDbLine
10
32.478023000000015
20
12.00000000000021
30
0
11
109.99999999999581
21
12.000000000000021
31
0
0
LINE
5
143
100
AcDbEntity
8
0
100
AcDbLine
10
109.99999999999581
20
12.000000000000021
30
0
11
109.99999999999078
21
19.999999999998234
31
0
0
LINE
5
144
100
AcDbEntity
8
0
100
AcDbLine
10
109.99999999999078
20
19.999999999998234
30
0
11
90
21
20.00000000000459
31
0
0
LINE
5
145
100
AcDbEntity
8
0
100
AcDbLine
10
90
20
20.00000000000459
30
0
11
90
21
32.000000000000213
31
0
0
LINE
5
146
100
AcDbEntity
8
0
100
AcDbLine
10
90
20
32.000000000000213
30
0
11
18.498023000000721
21
32.000000000000206
31
0
0
LINE
5
147
100
AcDbEntity
8
0
100
AcDbLine
10
83
20
12.000000000000007
30
0
11
83
21
11.000000000000021
31
0
0
LINE
5
148
100
AcDbEntity
8
0
100
AcDbLine
10
83
20
11.000000000000021
30
0
11
80
21
11.000000000000018
31
0
0
LINE
5
149
100
AcDbEntity
8
0
100
AcDbLine
10
80
20
11.000000000000018
30
0
11
80
21
12.000000000000004
31
0
0
LINE
5
150
100
AcDbEntity
8
0
100
AcDbLine
10
94.999999999995808
20
44.162064000661786
30
0
11
94.999999999995808
21
-12.051237095643135
31
0
0
LINE
5
151
100
AcDbEntity
8
0
100
AcDbLine
10
70
20
43.733810962558906
30
0
11
70
21
1.4734559760371684
31
0
0
LWPOLYLINE
5
152
100
AcDbEntity
8
0
100
AcDbPolyline
90
8
70
1
43
0.0
10
22.5
20
52.100000000000207
10
6.3500000000000023
20
52.100000000000222
10
6.3500000000000112
20
32.100000000000222
10
16.478023000000015
20
11.010000000000042
10
16.478023000000015
20
10.010000000000041
10
18.478022999999894
20
10.010000000000048
10
18.478023000000011
20
32.100000000000229
10
22.500000000000007
20
32.100000000000222
0
LINE
5
153
100
AcDbEntity
8
0
100
AcDbLine
10
16.478023000000015
20
10.00000000000002
30
0
11
18.498023000000604
21
10.000000000000004
31
0
0
LINE
5
154
100
AcDbEntity
8
0
100
AcDbLine
10
18.498023000000604
20
10.000000000000004
30
0
11
18.498023000000721
21
32.000000000000206
31
0
0
LINE
5
155
100
AcDbEntity
8
0
100
AcDbLine
10
83.000000000002103
20
-1.5246852649384933e-14
30
0
11
83.000000000002103
21
0.99999999999997868
31
0
0
LINE
5
156
100
AcDbEntity
8
0
100
AcDbLine
10
83.000000000002103
20
0.99999999999997868
30
0
11
80.000000000002103
21
0.99999999999997924
31
0
0
LINE
5
157
100
AcDbEntity
8
0
100
AcDbLine
10
80.000000000002103
20
0.99999999999997924
30
0
11
80.000000000002103
21
-1.4695761589768622e-14
31
0
0
LINE
5
158
100
AcDbEntity
8
0
100
AcDbLine
10
76.350000000000023
20
12.000000000000002
30
0
11
76.350000000000037
21
38.499500966656733
31
0
0
LINE
5
159
100
AcDbEntity
8
0
100
AcDbLine
10
76.350000000000037
20
38.499500966656733
30
0
11
70
21
38.499500966656697
31
0
0
ENDSEC
0
SECTION
2
OBJECTS
0
DICTIONARY
5
C
100
AcDbDictionary
3
ACAD_GROUP
350
D
3
ACAD_MLINESTYLE
350
17
0
DICTIONARY
5
D
100
AcDbDictionary
0
DICTIONARY
5
1A
330
C
100
AcDbDictionary
0
DICTIONARY
5
17
100
AcDbDictionary
0
ENDSEC
0
EOF
